<mxfile host="app.diagrams.net" modified="2025-10-28T00:00:00.000Z" agent="Claude Code" version="24.0.0">
  <diagram name="ローリングアップデートフロー" id="rolling-update">
    <mxGraphModel dx="1422" dy="794" grid="1" gridSize="10" guides="1" tooltips="1" connect="1" arrows="1" fold="1" page="1" pageScale="1" pageWidth="1400" pageHeight="900" math="0" shadow="0">
      <root>
        <mxCell id="0" />
        <mxCell id="1" parent="0" />

        <!-- Title -->
        <mxCell id="title" value="ローリングアップデートフロー - ECS Fargate" style="text;html=1;strokeColor=none;fillColor=none;align=center;verticalAlign=middle;whiteSpace=wrap;rounded=0;fontSize=20;fontStyle=1" vertex="1" parent="1">
          <mxGeometry x="400" y="20" width="600" height="40" as="geometry" />
        </mxCell>

        <!-- Step 1 -->
        <mxCell id="step1" value="1. 新イメージPush" style="rounded=1;whiteSpace=wrap;html=1;fillColor=#fff2cc;strokeColor=#d6b656;fontSize=14;" vertex="1" parent="1">
          <mxGeometry x="200" y="150" width="200" height="60" as="geometry" />
        </mxCell>

        <!-- Step 2 -->
        <mxCell id="step2" value="2. タスク定義更新" style="rounded=1;whiteSpace=wrap;html=1;fillColor=#fff2cc;strokeColor=#d6b656;fontSize=14;" vertex="1" parent="1">
          <mxGeometry x="500" y="150" width="200" height="60" as="geometry" />
        </mxCell>

        <!-- Step 3 -->
        <mxCell id="step3" value="3. 新タスク起動" style="rounded=1;whiteSpace=wrap;html=1;fillColor=#e1d5e7;strokeColor=#9673a6;fontSize=14;" vertex="1" parent="1">
          <mxGeometry x="800" y="150" width="200" height="60" as="geometry" />
        </mxCell>

        <!-- Step 4 -->
        <mxCell id="step4" value="4. ヘルスチェック&#xa;(60秒)" style="rounded=1;whiteSpace=wrap;html=1;fillColor=#fff2cc;strokeColor=#d6b656;fontSize=14;" vertex="1" parent="1">
          <mxGeometry x="200" y="300" width="200" height="60" as="geometry" />
        </mxCell>

        <!-- Step 5 -->
        <mxCell id="step5" value="5. トラフィック転送開始" style="rounded=1;whiteSpace=wrap;html=1;fillColor=#d5e8d4;strokeColor=#82b366;fontSize=14;" vertex="1" parent="1">
          <mxGeometry x="500" y="300" width="200" height="60" as="geometry" />
        </mxCell>

        <!-- Step 6 -->
        <mxCell id="step6" value="6. 旧タスク停止" style="rounded=1;whiteSpace=wrap;html=1;fillColor=#f8cecc;strokeColor=#b85450;fontSize=14;" vertex="1" parent="1">
          <mxGeometry x="800" y="300" width="200" height="60" as="geometry" />
        </mxCell>

        <!-- Arrows -->
        <mxCell id="arrow1" style="edgeStyle=orthogonalEdgeStyle;rounded=0;orthogonalLoop=1;jettySize=auto;html=1;strokeWidth=2;endArrow=block;endFill=1;" edge="1" parent="1" source="step1" target="step2">
          <mxGeometry relative="1" as="geometry" />
        </mxCell>

        <mxCell id="arrow2" style="edgeStyle=orthogonalEdgeStyle;rounded=0;orthogonalLoop=1;jettySize=auto;html=1;strokeWidth=2;endArrow=block;endFill=1;" edge="1" parent="1" source="step2" target="step3">
          <mxGeometry relative="1" as="geometry" />
        </mxCell>

        <mxCell id="arrow3" style="edgeStyle=orthogonalEdgeStyle;rounded=0;orthogonalLoop=1;jettySize=auto;html=1;strokeWidth=2;endArrow=block;endFill=1;" edge="1" parent="1" source="step3" target="step4">
          <mxGeometry relative="1" as="geometry" />
        </mxCell>

        <mxCell id="arrow4" style="edgeStyle=orthogonalEdgeStyle;rounded=0;orthogonalLoop=1;jettySize=auto;html=1;strokeWidth=2;endArrow=block;endFill=1;" edge="1" parent="1" source="step4" target="step5">
          <mxGeometry relative="1" as="geometry" />
        </mxCell>

        <mxCell id="arrow5" style="edgeStyle=orthogonalEdgeStyle;rounded=0;orthogonalLoop=1;jettySize=auto;html=1;strokeWidth=2;endArrow=block;endFill=1;" edge="1" parent="1" source="step5" target="step6">
          <mxGeometry relative="1" as="geometry" />
        </mxCell>

        <!-- Note -->
        <mxCell id="note" value="【ローリングアップデートの仕組み】&#xa;&#xa;✅ タスク1台ずつ更新&#xa;✅ 最小ヘルス率: 100%&#xa;✅ ヘルスチェック猶予期間: 60秒&#xa;✅ Graceful Shutdown" style="rounded=0;whiteSpace=wrap;html=1;fillColor=#ffffcc;strokeColor=#d6b656;align=left;verticalAlign=top;fontSize=11;" vertex="1" parent="1">
          <mxGeometry x="200" y="500" width="800" height="120" as="geometry" />
        </mxCell>

      </root>
    </mxGraphModel>
  </diagram>
</mxfile>
